<svg xmlns="http://www.w3.org/2000/svg" width="278" height="60" viewBox="-4 0 278 60" role="img" aria-label="AI SLOP badge">
  <defs>
    <radialGradient id="burst" cx="50%" cy="50%" r="70%">
      <stop offset="0%" stop-color="#ffffff"/>
      <stop offset="35%" stop-color="#ff006e"/>
      <stop offset="70%" stop-color="#8338ec"/>
      <stop offset="100%" stop-color="#3a86ff"/>
    </radialGradient>
  </defs>
  <polygon points="6,10 264,2 266,50 220,58 40,54 2,20" fill="url(#burst)" stroke="#ffffff" stroke-width="2"/>
  <path d="M18 14 L26 26 L40 30 L26 34 L18 46 L10 34 L-4 30 L10 26 Z" fill="#ffffff" opacity="0.8"/>
  <path d="M252 14 L260 26 L274 30 L260 34 L252 46 L244 34 L230 30 L244 26 Z" fill="#ffffff" opacity="0.8"/>
  <rect x="92" y="12" width="86" height="36" rx="10" fill="rgba(0,0,0,0.2)"/>
  <text x="118" y="28" text-anchor="middle" font-family="Jokerman, Impact, fantasy" font-size="22" fill="#ffffff" font-weight="800" transform="rotate(-6 118 28)">AI</text>
  <text x="162" y="40" text-anchor="middle" font-family="Stencil, Impact, fantasy" font-size="24" fill="#ffffff" font-weight="800" transform="rotate(8 162 40)">SLOP</text>
</svg>
