<svg xmlns="http://www.w3.org/2000/svg" width="240" height="60" viewBox="0 0 240 60" role="img" aria-label="AI SLOP badge">
  <path d="M6 26 C20 8, 44 8, 58 26 C72 44, 96 44, 110 26 C124 8, 148 8, 162 26 C176 44, 200 44, 214 26 L214 50 L6 50 Z" fill="#ffe4fb" stroke="#c800a1" stroke-width="2"/>
  <circle cx="24" cy="14" r="5" fill="#c800a1"/>
  <circle cx="216" cy="14" r="5" fill="#c800a1"/>
  <path d="M40 40 C60 20, 80 50, 100 30" stroke="#c800a1" stroke-width="3" fill="none"/>
  <path d="M140 30 C160 50, 180 20, 200 40" stroke="#c800a1" stroke-width="3" fill="none"/>
  <text x="90" y="40" text-anchor="middle" font-family="ComicSansMS, ComicSans, cursive" font-size="24" fill="#6a0056" font-weight="700" transform="rotate(-8 90 40)">AI</text>
  <text x="150" y="46" text-anchor="middle" font-family="Papyrus, fantasy" font-size="22" fill="#6a0056" font-weight="700" transform="rotate(10 150 46)">SLOP</text>
</svg>
